<svg width="500" height="136" viewBox="0 0 500 136" fill="none" xmlns="http://www.w3.org/2000/svg">
<g clip-path="url(#clip0_14589_409)">
<path d="M15.562 39.6484L70.1966 43.4338C71.2769 43.5068 72.361 43.5068 73.441 43.4338L130.249 39.6484C131.022 39.596 131.623 38.9371 131.623 38.1419V30.6149C131.623 29.2422 130.539 28.1295 129.202 28.1295H16.6096C15.272 28.1295 14.1883 29.2422 14.1883 30.6149V38.1419C14.1883 38.9368 14.7891 39.596 15.562 39.6484ZM29.1112 66.9611V56.6911C29.1113 56.1336 28.9037 55.596 28.5291 55.1832C28.1544 54.7703 27.6394 54.5118 27.0845 54.4579L5.52745 52.4746C4.29664 52.3555 3.23096 53.3225 3.23096 54.559V63.9649C3.23096 64.4627 3.40832 64.9442 3.7312 65.323C4.05408 65.7019 4.50136 65.9533 4.99284 66.0322L26.512 69.1763C27.8756 69.3955 29.1112 68.3425 29.1112 66.9611ZM140.284 52.4746L84.5831 57.8776C76.8164 58.6309 68.995 58.6309 61.2283 57.8776C60.1566 57.7752 46.1947 56.3695 45.6599 56.3603C44.3415 56.2322 43.1996 57.2687 43.1996 58.5936V70.2479C43.1996 71.3498 43.9996 72.2884 45.0872 72.4633L65.5366 75.7592C70.423 76.5444 75.4035 76.5444 80.2899 75.7592L140.819 66.0322C141.31 65.9533 141.758 65.7019 142.08 65.323C142.403 64.9442 142.58 64.4627 142.58 63.9649V54.559C142.58 53.3225 141.515 52.3555 140.284 52.4746ZM122.492 107.847L80.2807 118.981C75.4466 120.255 70.3645 120.255 65.5304 118.981L23.3188 107.847C21.8634 107.463 20.4388 108.561 20.4388 110.066V114.653C20.4388 115.605 20.7316 116.534 21.2775 117.314C21.8234 118.094 22.596 118.687 23.4904 119.013L64.472 133.943C69.9242 135.929 75.9022 135.929 81.3542 133.942L122.321 119.013C123.216 118.687 123.988 118.094 124.534 117.314C125.08 116.534 125.373 115.605 125.373 114.654V110.066C125.373 108.561 123.948 107.463 122.492 107.847ZM34.6466 14.13H111.165C112.8 14.13 114.126 12.8041 114.126 11.169V6.26518C114.126 5.52376 113.848 4.80932 113.346 4.26309C112.845 3.71686 112.157 3.3786 111.418 3.31518L79.5369 0.578157C76.481 0.317271 73.4123 0.237761 70.3469 0.340048C69.1602 0.227615 36.6469 3.15789 34.3934 3.31518C33.6547 3.37853 32.9666 3.71672 32.4652 4.2629C31.9638 4.80908 31.6856 5.52349 31.6855 6.26491V11.169C31.6855 12.8041 33.0115 14.13 34.6466 14.13ZM135.493 79.9422L82.8142 88.9649C76.2564 90.0884 69.5553 90.0884 62.9974 88.9649L10.3188 79.9422C8.93609 79.7052 7.67555 80.789 7.67555 82.2144V88.9314C7.67555 89.9933 8.38961 90.9176 9.4042 91.1695L66.2364 105.281C70.621 106.37 75.2056 106.37 79.5901 105.281L136.407 91.1698C137.422 90.9176 138.136 89.9933 138.136 88.9314V82.2144C138.136 80.789 136.875 79.7052 135.493 79.9422ZM296.385 20.2973H282.734C282.316 20.2973 281.916 20.4632 281.621 20.7583C281.326 21.0534 281.16 21.4537 281.16 21.8711V113.978C281.16 114.395 281.326 114.795 281.621 115.09C281.916 115.386 282.316 115.551 282.734 115.551H296.385C296.591 115.551 296.796 115.511 296.987 115.432C297.178 115.353 297.352 115.237 297.498 115.091C297.644 114.944 297.76 114.771 297.839 114.58C297.918 114.389 297.959 114.184 297.959 113.978V21.8711C297.959 21.6644 297.918 21.4598 297.839 21.2688C297.76 21.0778 297.644 20.9043 297.498 20.7582C297.352 20.6121 297.178 20.4961 296.987 20.4171C296.796 20.338 296.591 20.2973 296.385 20.2973ZM460.796 34.0168V22.0022C460.796 21.55 460.616 21.1165 460.296 20.7968C459.976 20.4771 459.543 20.2975 459.09 20.2973H419.381C403.826 20.2973 395.186 31.1298 395.186 44.4925L395.186 91.4782C395.186 104.773 402.608 115.551 419.259 115.551H459.09C460.031 115.551 460.796 114.788 460.796 113.847V101.832C460.796 101.38 460.616 100.946 460.296 100.627C459.976 100.307 459.543 100.127 459.09 100.127H423.089C413.329 100.127 411.985 95.1555 411.985 89.0228V75.6365H456.085C456.537 75.6365 456.971 75.4568 457.29 75.137C457.61 74.8173 457.79 74.3836 457.79 73.9314V61.9171C457.79 61.4649 457.61 61.0313 457.29 60.7116C456.971 60.3918 456.537 60.2122 456.085 60.2122H411.985V47.1657C411.985 40.8455 414.674 35.7217 423.429 35.7217H459.09C460.031 35.7217 460.796 34.9584 460.796 34.0168ZM347.13 99.013L325.597 21.31C325.525 21.021 325.359 20.7642 325.124 20.5807C324.889 20.3971 324.6 20.2974 324.302 20.2973H310.621C309.567 20.2973 308.792 21.2873 309.046 22.3109L332.629 108.276C333.689 112.55 337.526 115.551 341.929 115.551H354.751C359.017 115.551 362.734 112.644 363.761 108.503L387.4 22.3109C387.654 21.2873 386.88 20.2973 385.825 20.2973H372.144C371.846 20.2974 371.557 20.3971 371.323 20.5806C371.088 20.7642 370.922 21.0209 370.85 21.31L349.316 99.013C349 100.134 347.461 100.107 347.13 99.013ZM247.308 60.2119H217.61C217.219 60.2119 216.844 60.3671 216.568 60.6433C216.292 60.9195 216.137 61.2941 216.137 61.6846V74.1638C216.137 74.5544 216.292 74.929 216.568 75.2052C216.844 75.4814 217.219 75.6365 217.61 75.6365H247.308V113.978C247.308 114.395 247.474 114.795 247.769 115.09C248.064 115.386 248.464 115.551 248.882 115.551H262.533C262.951 115.551 263.351 115.386 263.646 115.09C263.941 114.795 264.107 114.395 264.107 113.978V21.8711C264.107 21.4537 263.941 21.0534 263.646 20.7583C263.351 20.4632 262.951 20.2973 262.533 20.2973H248.882C248.464 20.2973 248.064 20.4632 247.769 20.7583C247.474 21.0534 247.308 21.4537 247.308 21.8711V60.2119ZM204.943 20.2973H191.291C190.874 20.2973 190.474 20.4632 190.178 20.7583C189.883 21.0534 189.717 21.4537 189.717 21.8711V113.978C189.717 114.395 189.883 114.795 190.178 115.09C190.474 115.386 190.874 115.551 191.291 115.551H204.943C205.36 115.551 205.76 115.386 206.055 115.09C206.351 114.795 206.516 114.395 206.516 113.978V21.8711C206.516 21.4537 206.351 21.0534 206.055 20.7583C205.76 20.4632 205.36 20.2973 204.943 20.2973Z" fill="#FF5900"/>
</g>
<defs>
<clipPath id="clip0_14589_409">
<rect width="500" height="135.135" fill="white" transform="translate(0 0.432617)"/>
</clipPath>
</defs>
</svg>
